<svg width="16" height="16" viewBox="0 0 16 16" fill="none" xmlns="http://www.w3.org/2000/svg">
<path d="M1.33325 5.33332C1.33325 5.15651 1.40349 4.98694 1.52851 4.86192C1.65354 4.73689 1.82311 4.66666 1.99992 4.66666H13.9999C14.1767 4.66666 14.3463 4.73689 14.4713 4.86192C14.5963 4.98694 14.6666 5.15651 14.6666 5.33332C14.6666 5.51013 14.5963 5.6797 14.4713 5.80473C14.3463 5.92975 14.1767 5.99999 13.9999 5.99999H1.99992C1.82311 5.99999 1.65354 5.92975 1.52851 5.80473C1.40349 5.6797 1.33325 5.51013 1.33325 5.33332Z" fill="black"/>
<path d="M1.33325 7.99998C1.33325 7.82317 1.40349 7.6536 1.52851 7.52858C1.65354 7.40355 1.82311 7.33331 1.99992 7.33331H13.9999C14.1767 7.33331 14.3463 7.40355 14.4713 7.52858C14.5963 7.6536 14.6666 7.82317 14.6666 7.99998C14.6666 8.17679 14.5963 8.34636 14.4713 8.47138C14.3463 8.59641 14.1767 8.66665 13.9999 8.66665H1.99992C1.82311 8.66665 1.65354 8.59641 1.52851 8.47138C1.40349 8.34636 1.33325 8.17679 1.33325 7.99998Z" fill="black"/>
<path d="M1.99992 10C1.82311 10 1.65354 10.0702 1.52851 10.1953C1.40349 10.3203 1.33325 10.4899 1.33325 10.6667C1.33325 10.8435 1.40349 11.013 1.52851 11.1381C1.65354 11.2631 1.82311 11.3333 1.99992 11.3333H9.99992C10.1767 11.3333 10.3463 11.2631 10.4713 11.1381C10.5963 11.013 10.6666 10.8435 10.6666 10.6667C10.6666 10.4899 10.5963 10.3203 10.4713 10.1953C10.3463 10.0702 10.1767 10 9.99992 10H1.99992Z" fill="black"/>
</svg>
